<?xml version="1.0" encoding="UTF-8" standalone="no"?>
<!DOCTYPE svg PUBLIC "-//W3C//DTD SVG 1.1//EN"
 "http://www.w3.org/Graphics/SVG/1.1/DTD/svg11.dtd">
<!-- Generated by graphviz version 2.36.0 (20140111.2315)
 -->
<!-- Title: models_diagram Pages: 1 -->
<svg width="332pt" height="694pt"
 viewBox="0.00 0.00 332.00 694.00" xmlns="http://www.w3.org/2000/svg" xmlns:xlink="http://www.w3.org/1999/xlink">
<g id="graph0" class="graph" transform="scale(1 1) rotate(0) translate(4 690)">
<title>models_diagram</title>
<polygon fill="white" stroke="none" points="-4,4 -4,-690 328,-690 328,4 -4,4"/>
<!-- Burger -->
<g id="node1" class="node"><title>Burger</title>
<path fill="none" stroke="black" d="M101.122,-251C101.122,-251 224.878,-251 224.878,-251 230.878,-251 236.878,-257 236.878,-263 236.878,-263 236.878,-465 236.878,-465 236.878,-471 230.878,-477 224.878,-477 224.878,-477 101.122,-477 101.122,-477 95.1221,-477 89.1221,-471 89.1221,-465 89.1221,-465 89.1221,-263 89.1221,-263 89.1221,-257 95.1221,-251 101.122,-251"/>
<text text-anchor="middle" x="163" y="-461.8" font-family="Times,serif" font-size="14.00">Burger</text>
<polyline fill="none" stroke="black" points="89.1221,-455 236.878,-455 "/>
<text text-anchor="start" x="97.1221" y="-439.8" font-family="Times,serif" font-size="14.00">id :integer</text>
<text text-anchor="start" x="97.1221" y="-425.8" font-family="Times,serif" font-size="14.00">burger_name :string</text>
<text text-anchor="start" x="97.1221" y="-411.8" font-family="Times,serif" font-size="14.00">price :decimal</text>
<text text-anchor="start" x="97.1221" y="-397.8" font-family="Times,serif" font-size="14.00">protein :string</text>
<text text-anchor="start" x="97.1221" y="-383.8" font-family="Times,serif" font-size="14.00">bun_type :string</text>
<text text-anchor="start" x="97.1221" y="-369.8" font-family="Times,serif" font-size="14.00">grass_fed :boolean</text>
<text text-anchor="start" x="97.1221" y="-355.8" font-family="Times,serif" font-size="14.00">gluten_free :boolean</text>
<text text-anchor="start" x="97.1221" y="-341.8" font-family="Times,serif" font-size="14.00">average_score :decimal</text>
<text text-anchor="start" x="97.1221" y="-327.8" font-family="Times,serif" font-size="14.00">num_reviews :decimal</text>
<text text-anchor="start" x="97.1221" y="-313.8" font-family="Times,serif" font-size="14.00">description :text</text>
<text text-anchor="start" x="97.1221" y="-299.8" font-family="Times,serif" font-size="14.00">special_notes :text</text>
<text text-anchor="start" x="97.1221" y="-285.8" font-family="Times,serif" font-size="14.00">created_at :datetime</text>
<text text-anchor="start" x="97.1221" y="-271.8" font-family="Times,serif" font-size="14.00">updated_at :datetime</text>
<text text-anchor="start" x="97.1221" y="-257.8" font-family="Times,serif" font-size="14.00">restaurant_id :integer</text>
</g>
<!-- Review -->
<g id="node3" class="node"><title>Review</title>
<path fill="none" stroke="black" d="M11.8257,-1C11.8257,-1 144.174,-1 144.174,-1 150.174,-1 156.174,-7 156.174,-13 156.174,-13 156.174,-201 156.174,-201 156.174,-207 150.174,-213 144.174,-213 144.174,-213 11.8257,-213 11.8257,-213 5.82568,-213 -0.174316,-207 -0.174316,-201 -0.174316,-201 -0.174316,-13 -0.174316,-13 -0.174316,-7 5.82568,-1 11.8257,-1"/>
<text text-anchor="middle" x="78" y="-197.8" font-family="Times,serif" font-size="14.00">Review</text>
<polyline fill="none" stroke="black" points="-0.174316,-191 156.174,-191 "/>
<text text-anchor="start" x="7.82568" y="-175.8" font-family="Times,serif" font-size="14.00">id :integer</text>
<text text-anchor="start" x="7.82568" y="-161.8" font-family="Times,serif" font-size="14.00">patty :decimal</text>
<text text-anchor="start" x="7.82568" y="-147.8" font-family="Times,serif" font-size="14.00">bun :decimal</text>
<text text-anchor="start" x="7.82568" y="-133.8" font-family="Times,serif" font-size="14.00">bun_patty_ratio :decimal</text>
<text text-anchor="start" x="7.82568" y="-119.8" font-family="Times,serif" font-size="14.00">created_at :datetime</text>
<text text-anchor="start" x="7.82568" y="-105.8" font-family="Times,serif" font-size="14.00">updated_at :datetime</text>
<text text-anchor="start" x="7.82568" y="-91.8" font-family="Times,serif" font-size="14.00">toppings :decimal</text>
<text text-anchor="start" x="7.82568" y="-77.8" font-family="Times,serif" font-size="14.00">service :decimal</text>
<text text-anchor="start" x="7.82568" y="-63.8" font-family="Times,serif" font-size="14.00">total :decimal</text>
<text text-anchor="start" x="7.82568" y="-49.8" font-family="Times,serif" font-size="14.00">user_id :integer</text>
<text text-anchor="start" x="7.82568" y="-35.8" font-family="Times,serif" font-size="14.00">burger_id :integer</text>
<text text-anchor="start" x="7.82568" y="-21.8" font-family="Times,serif" font-size="14.00">comments :text</text>
<text text-anchor="start" x="7.82568" y="-7.8" font-family="Times,serif" font-size="14.00">side :decimal</text>
</g>
<!-- Burger&#45;&gt;Review -->
<g id="edge1" class="edge"><title>Burger&#45;&gt;Review</title>
<path fill="none" stroke="#b0c42d" d="M123.063,-243.189C120.835,-236.504 118.597,-229.79 116.374,-223.122"/>
<ellipse fill="none" stroke="#b0c42d" cx="124.329" cy="-246.987" rx="4.00001" ry="4.00001"/>
<polygon fill="#b0c42d" stroke="#b0c42d" points="116.294,-222.881 117.4,-211.971 114.713,-218.138 113.131,-213.394 113.131,-213.394 113.131,-213.394 114.713,-218.138 108.862,-214.817 116.294,-222.881 116.294,-222.881"/>
</g>
<!-- User -->
<g id="node4" class="node"><title>User</title>
<path fill="none" stroke="black" d="M185.936,-29C185.936,-29 312.064,-29 312.064,-29 318.064,-29 324.064,-35 324.064,-41 324.064,-41 324.064,-173 324.064,-173 324.064,-179 318.064,-185 312.064,-185 312.064,-185 185.936,-185 185.936,-185 179.936,-185 173.936,-179 173.936,-173 173.936,-173 173.936,-41 173.936,-41 173.936,-35 179.936,-29 185.936,-29"/>
<text text-anchor="middle" x="249" y="-169.8" font-family="Times,serif" font-size="14.00">User</text>
<polyline fill="none" stroke="black" points="173.936,-163 324.064,-163 "/>
<text text-anchor="start" x="181.936" y="-147.8" font-family="Times,serif" font-size="14.00">id :integer</text>
<text text-anchor="start" x="181.936" y="-133.8" font-family="Times,serif" font-size="14.00">first_name :string</text>
<text text-anchor="start" x="181.936" y="-119.8" font-family="Times,serif" font-size="14.00">last_name :string</text>
<text text-anchor="start" x="181.936" y="-105.8" font-family="Times,serif" font-size="14.00">email :string</text>
<text text-anchor="start" x="181.936" y="-91.8" font-family="Times,serif" font-size="14.00">twitter :string</text>
<text text-anchor="start" x="181.936" y="-77.8" font-family="Times,serif" font-size="14.00">created_at :datetime</text>
<text text-anchor="start" x="181.936" y="-63.8" font-family="Times,serif" font-size="14.00">updated_at :datetime</text>
<text text-anchor="start" x="181.936" y="-49.8" font-family="Times,serif" font-size="14.00">password_digest :string</text>
<text text-anchor="start" x="181.936" y="-35.8" font-family="Times,serif" font-size="14.00">remember_token :string</text>
</g>
<!-- Burger&#45;&gt;User -->
<g id="edge2" class="edge"><title>Burger&#45;&gt;User</title>
<path fill="none" stroke="#f59104" d="M204.1,-241.134C209.379,-225.481 214.696,-209.716 219.732,-194.782"/>
<polygon fill="#f59104" stroke="#f59104" points="204.042,-241.307 196.582,-249.344 202.444,-246.044 200.846,-250.782 200.846,-250.782 200.846,-250.782 202.444,-246.044 205.11,-252.22 204.042,-241.307 204.042,-241.307"/>
<polygon fill="#f59104" stroke="#f59104" points="219.802,-194.575 227.262,-186.537 221.4,-189.837 222.998,-185.099 222.998,-185.099 222.998,-185.099 221.4,-189.837 218.734,-183.661 219.802,-194.575 219.802,-194.575"/>
</g>
<!-- Restaurant -->
<g id="node2" class="node"><title>Restaurant</title>
<path fill="none" stroke="black" d="M108.495,-515C108.495,-515 217.505,-515 217.505,-515 223.505,-515 229.505,-521 229.505,-527 229.505,-527 229.505,-673 229.505,-673 229.505,-679 223.505,-685 217.505,-685 217.505,-685 108.495,-685 108.495,-685 102.495,-685 96.4946,-679 96.4946,-673 96.4946,-673 96.4946,-527 96.4946,-527 96.4946,-521 102.495,-515 108.495,-515"/>
<text text-anchor="middle" x="163" y="-669.8" font-family="Times,serif" font-size="14.00">Restaurant</text>
<polyline fill="none" stroke="black" points="96.4946,-663 229.505,-663 "/>
<text text-anchor="start" x="104.495" y="-647.8" font-family="Times,serif" font-size="14.00">id :integer</text>
<text text-anchor="start" x="104.495" y="-633.8" font-family="Times,serif" font-size="14.00">name :string</text>
<text text-anchor="start" x="104.495" y="-619.8" font-family="Times,serif" font-size="14.00">address :string</text>
<text text-anchor="start" x="104.495" y="-605.8" font-family="Times,serif" font-size="14.00">city :string</text>
<text text-anchor="start" x="104.495" y="-591.8" font-family="Times,serif" font-size="14.00">created_at :datetime</text>
<text text-anchor="start" x="104.495" y="-577.8" font-family="Times,serif" font-size="14.00">updated_at :datetime</text>
<text text-anchor="start" x="104.495" y="-563.8" font-family="Times,serif" font-size="14.00">state :string</text>
<text text-anchor="start" x="104.495" y="-549.8" font-family="Times,serif" font-size="14.00">zip :string</text>
<text text-anchor="start" x="104.495" y="-535.8" font-family="Times,serif" font-size="14.00">website :string</text>
<text text-anchor="start" x="104.495" y="-521.8" font-family="Times,serif" font-size="14.00">phone :string</text>
</g>
<!-- Restaurant&#45;&gt;Burger -->
<g id="edge3" class="edge"><title>Restaurant&#45;&gt;Burger</title>
<path fill="none" stroke="#5c0123" d="M163,-506.786C163,-500.437 163,-493.986 163,-487.513"/>
<ellipse fill="none" stroke="#5c0123" cx="163" cy="-510.851" rx="4" ry="4"/>
<polygon fill="#5c0123" stroke="#5c0123" points="163,-487.333 167.5,-477.333 163,-482.333 163,-477.333 163,-477.333 163,-477.333 163,-482.333 158.5,-477.333 163,-487.333 163,-487.333"/>
</g>
</g>
</svg>
