<?xml version="1.0" encoding="UTF-8" standalone="no"?>
<!DOCTYPE svg PUBLIC "-//W3C//DTD SVG 1.1//EN"
 "http://www.w3.org/Graphics/SVG/1.1/DTD/svg11.dtd">
<!-- Generated by graphviz version 2.36.0 (20140111.2315)
 -->
<!-- Title: models_diagram Pages: 1 -->
<svg width="332pt" height="694pt"
 viewBox="0.00 0.00 332.00 694.00" xmlns="http://www.w3.org/2000/svg" xmlns:xlink="http://www.w3.org/1999/xlink">
<g id="graph0" class="graph" transform="scale(1 1) rotate(0) translate(4 690)">
<title>models_diagram</title>
<polygon fill="white" stroke="none" points="-4,4 -4,-690 328,-690 328,4 -4,4"/>
<!-- Burger -->
<g id="node1" class="node"><title>Burger</title>
<path fill="none" stroke="black" d="M187.122,-251C187.122,-251 310.878,-251 310.878,-251 316.878,-251 322.878,-257 322.878,-263 322.878,-263 322.878,-465 322.878,-465 322.878,-471 316.878,-477 310.878,-477 310.878,-477 187.122,-477 187.122,-477 181.122,-477 175.122,-471 175.122,-465 175.122,-465 175.122,-263 175.122,-263 175.122,-257 181.122,-251 187.122,-251"/>
<text text-anchor="middle" x="249" y="-461.8" font-family="Times,serif" font-size="14.00">Burger</text>
<polyline fill="none" stroke="black" points="175.122,-455 322.878,-455 "/>
<text text-anchor="start" x="183.122" y="-439.8" font-family="Times,serif" font-size="14.00">id :integer</text>
<text text-anchor="start" x="183.122" y="-425.8" font-family="Times,serif" font-size="14.00">burger_name :string</text>
<text text-anchor="start" x="183.122" y="-411.8" font-family="Times,serif" font-size="14.00">price :decimal</text>
<text text-anchor="start" x="183.122" y="-397.8" font-family="Times,serif" font-size="14.00">protein :string</text>
<text text-anchor="start" x="183.122" y="-383.8" font-family="Times,serif" font-size="14.00">bun_type :string</text>
<text text-anchor="start" x="183.122" y="-369.8" font-family="Times,serif" font-size="14.00">grass_fed :boolean</text>
<text text-anchor="start" x="183.122" y="-355.8" font-family="Times,serif" font-size="14.00">gluten_free :boolean</text>
<text text-anchor="start" x="183.122" y="-341.8" font-family="Times,serif" font-size="14.00">average_score :decimal</text>
<text text-anchor="start" x="183.122" y="-327.8" font-family="Times,serif" font-size="14.00">num_reviews :decimal</text>
<text text-anchor="start" x="183.122" y="-313.8" font-family="Times,serif" font-size="14.00">description :text</text>
<text text-anchor="start" x="183.122" y="-299.8" font-family="Times,serif" font-size="14.00">special_notes :text</text>
<text text-anchor="start" x="183.122" y="-285.8" font-family="Times,serif" font-size="14.00">created_at :datetime</text>
<text text-anchor="start" x="183.122" y="-271.8" font-family="Times,serif" font-size="14.00">updated_at :datetime</text>
<text text-anchor="start" x="183.122" y="-257.8" font-family="Times,serif" font-size="14.00">restaurant_id :integer</text>
</g>
<!-- Review -->
<g id="node3" class="node"><title>Review</title>
<path fill="none" stroke="black" d="M11.8257,-1C11.8257,-1 144.174,-1 144.174,-1 150.174,-1 156.174,-7 156.174,-13 156.174,-13 156.174,-201 156.174,-201 156.174,-207 150.174,-213 144.174,-213 144.174,-213 11.8257,-213 11.8257,-213 5.82568,-213 -0.174316,-207 -0.174316,-201 -0.174316,-201 -0.174316,-13 -0.174316,-13 -0.174316,-7 5.82568,-1 11.8257,-1"/>
<text text-anchor="middle" x="78" y="-197.8" font-family="Times,serif" font-size="14.00">Review</text>
<polyline fill="none" stroke="black" points="-0.174316,-191 156.174,-191 "/>
<text text-anchor="start" x="7.82568" y="-175.8" font-family="Times,serif" font-size="14.00">id :integer</text>
<text text-anchor="start" x="7.82568" y="-161.8" font-family="Times,serif" font-size="14.00">patty :decimal</text>
<text text-anchor="start" x="7.82568" y="-147.8" font-family="Times,serif" font-size="14.00">bun :decimal</text>
<text text-anchor="start" x="7.82568" y="-133.8" font-family="Times,serif" font-size="14.00">bun_patty_ratio :decimal</text>
<text text-anchor="start" x="7.82568" y="-119.8" font-family="Times,serif" font-size="14.00">created_at :datetime</text>
<text text-anchor="start" x="7.82568" y="-105.8" font-family="Times,serif" font-size="14.00">updated_at :datetime</text>
<text text-anchor="start" x="7.82568" y="-91.8" font-family="Times,serif" font-size="14.00">toppings :decimal</text>
<text text-anchor="start" x="7.82568" y="-77.8" font-family="Times,serif" font-size="14.00">service :decimal</text>
<text text-anchor="start" x="7.82568" y="-63.8" font-family="Times,serif" font-size="14.00">total :decimal</text>
<text text-anchor="start" x="7.82568" y="-49.8" font-family="Times,serif" font-size="14.00">user_id :integer</text>
<text text-anchor="start" x="7.82568" y="-35.8" font-family="Times,serif" font-size="14.00">burger_id :integer</text>
<text text-anchor="start" x="7.82568" y="-21.8" font-family="Times,serif" font-size="14.00">comments :text</text>
<text text-anchor="start" x="7.82568" y="-7.8" font-family="Times,serif" font-size="14.00">side :decimal</text>
</g>
<!-- Burger&#45;&gt;Review -->
<g id="edge1" class="edge"><title>Burger&#45;&gt;Review</title>
<path fill="none" stroke="#87145f" d="M170.464,-245.885C165.055,-237.819 159.609,-229.697 154.212,-221.65"/>
<ellipse fill="none" stroke="#87145f" cx="172.764" cy="-249.314" rx="4.00002" ry="4.00002"/>
<polygon fill="#87145f" stroke="#87145f" points="154.18,-221.601 152.347,-210.789 151.395,-217.448 148.61,-213.296 148.61,-213.296 148.61,-213.296 151.395,-217.448 144.872,-215.802 154.18,-221.601 154.18,-221.601"/>
</g>
<!-- User -->
<g id="node4" class="node"><title>User</title>
<path fill="none" stroke="black" d="M185.936,-29C185.936,-29 312.064,-29 312.064,-29 318.064,-29 324.064,-35 324.064,-41 324.064,-41 324.064,-173 324.064,-173 324.064,-179 318.064,-185 312.064,-185 312.064,-185 185.936,-185 185.936,-185 179.936,-185 173.936,-179 173.936,-173 173.936,-173 173.936,-41 173.936,-41 173.936,-35 179.936,-29 185.936,-29"/>
<text text-anchor="middle" x="249" y="-169.8" font-family="Times,serif" font-size="14.00">User</text>
<polyline fill="none" stroke="black" points="173.936,-163 324.064,-163 "/>
<text text-anchor="start" x="181.936" y="-147.8" font-family="Times,serif" font-size="14.00">id :integer</text>
<text text-anchor="start" x="181.936" y="-133.8" font-family="Times,serif" font-size="14.00">first_name :string</text>
<text text-anchor="start" x="181.936" y="-119.8" font-family="Times,serif" font-size="14.00">last_name :string</text>
<text text-anchor="start" x="181.936" y="-105.8" font-family="Times,serif" font-size="14.00">email :string</text>
<text text-anchor="start" x="181.936" y="-91.8" font-family="Times,serif" font-size="14.00">twitter :string</text>
<text text-anchor="start" x="181.936" y="-77.8" font-family="Times,serif" font-size="14.00">created_at :datetime</text>
<text text-anchor="start" x="181.936" y="-63.8" font-family="Times,serif" font-size="14.00">updated_at :datetime</text>
<text text-anchor="start" x="181.936" y="-49.8" font-family="Times,serif" font-size="14.00">password_digest :string</text>
<text text-anchor="start" x="181.936" y="-35.8" font-family="Times,serif" font-size="14.00">remember_token :string</text>
</g>
<!-- Burger&#45;&gt;User -->
<g id="edge2" class="edge"><title>Burger&#45;&gt;User</title>
<path fill="none" stroke="#e92eef" d="M242.255,-240.611C242.226,-225.247 242.328,-209.784 242.56,-195.116"/>
<polygon fill="#e92eef" stroke="#e92eef" points="242.255,-240.782 237.793,-250.799 242.274,-245.782 242.293,-250.782 242.293,-250.782 242.293,-250.782 242.274,-245.782 246.793,-250.765 242.255,-240.782 242.255,-240.782"/>
<polygon fill="#e92eef" stroke="#e92eef" points="242.561,-195.097 247.242,-185.181 242.652,-190.098 242.742,-185.099 242.742,-185.099 242.742,-185.099 242.652,-190.098 238.243,-185.017 242.561,-195.097 242.561,-195.097"/>
</g>
<!-- Restaurant -->
<g id="node2" class="node"><title>Restaurant</title>
<path fill="none" stroke="black" d="M194.495,-515C194.495,-515 303.505,-515 303.505,-515 309.505,-515 315.505,-521 315.505,-527 315.505,-527 315.505,-673 315.505,-673 315.505,-679 309.505,-685 303.505,-685 303.505,-685 194.495,-685 194.495,-685 188.495,-685 182.495,-679 182.495,-673 182.495,-673 182.495,-527 182.495,-527 182.495,-521 188.495,-515 194.495,-515"/>
<text text-anchor="middle" x="249" y="-669.8" font-family="Times,serif" font-size="14.00">Restaurant</text>
<polyline fill="none" stroke="black" points="182.495,-663 315.505,-663 "/>
<text text-anchor="start" x="190.495" y="-647.8" font-family="Times,serif" font-size="14.00">id :integer</text>
<text text-anchor="start" x="190.495" y="-633.8" font-family="Times,serif" font-size="14.00">name :string</text>
<text text-anchor="start" x="190.495" y="-619.8" font-family="Times,serif" font-size="14.00">address :string</text>
<text text-anchor="start" x="190.495" y="-605.8" font-family="Times,serif" font-size="14.00">city :string</text>
<text text-anchor="start" x="190.495" y="-591.8" font-family="Times,serif" font-size="14.00">created_at :datetime</text>
<text text-anchor="start" x="190.495" y="-577.8" font-family="Times,serif" font-size="14.00">updated_at :datetime</text>
<text text-anchor="start" x="190.495" y="-563.8" font-family="Times,serif" font-size="14.00">state :string</text>
<text text-anchor="start" x="190.495" y="-549.8" font-family="Times,serif" font-size="14.00">zip :string</text>
<text text-anchor="start" x="190.495" y="-535.8" font-family="Times,serif" font-size="14.00">website :string</text>
<text text-anchor="start" x="190.495" y="-521.8" font-family="Times,serif" font-size="14.00">phone :string</text>
</g>
<!-- Restaurant&#45;&gt;Burger -->
<g id="edge3" class="edge"><title>Restaurant&#45;&gt;Burger</title>
<path fill="none" stroke="#a3ab69" d="M249,-506.786C249,-500.437 249,-493.986 249,-487.513"/>
<ellipse fill="none" stroke="#a3ab69" cx="249" cy="-510.851" rx="4" ry="4"/>
<polygon fill="#a3ab69" stroke="#a3ab69" points="249,-487.333 253.5,-477.333 249,-482.333 249,-477.333 249,-477.333 249,-477.333 249,-482.333 244.5,-477.333 249,-487.333 249,-487.333"/>
</g>
<!-- User&#45;&gt;Burger -->
<g id="edge4" class="edge"><title>User&#45;&gt;Burger</title>
<path fill="none" stroke="#43526a" d="M255.412,-193.427C255.664,-208.594 255.775,-224.656 255.745,-240.611"/>
<ellipse fill="none" stroke="#43526a" cx="255.332" cy="-189.098" rx="4" ry="4"/>
<polygon fill="#43526a" stroke="#43526a" points="255.745,-240.782 251.207,-250.765 255.726,-245.782 255.707,-250.782 255.707,-250.782 255.707,-250.782 255.726,-245.782 260.207,-250.799 255.745,-240.782 255.745,-240.782"/>
</g>
</g>
</svg>
